PathFileType	4	(X/Y/Z)	OpenSim_Sub02_CSStiffKnee_Accel.trc
DataRate	CameraRate	NumFrames	NumMarkers	Units	OrigDataRate	OrigDataStartFrame	OrigNumFrames
100	100	13	8	m	100	3446	6891
Frame#	Time	torso_imu_offset_imu	pelvis_imu_offset_imu	tibia_r_imu_offset_imu	femur_r_imu_offset_imu	tibia_l_imu_offset_imu	femur_l_imu_offset_imu	toes_r_imu_offset_imu	toes_l_imu_offset_imu
				X1	Y1	Z1	X2	Y2	Z2	X3	Y3	Z3	X4	Y4	Z4	X5	Y5	Z5	X6	Y6	Z6	X7	Y7	Z7	X8		Y8	Z8	

3446	34.45000000	8.25021051	-1.74876162	5.53014417	8.64729885	1.90914347	4.60946597	11.08479421	0.61630926	1.42721681	9.04541290	-0.97719518	0.21881308	5.17440618	-5.98382350	1.45047704	8.04610386	-1.62160142	-0.22015593	4.50596573	0.17669448	8.97840239	4.26753484	-1.75160916	12.54139366
3447	34.46000000	8.29668181	-1.72821752	5.53321914	8.49494595	1.82463534	4.61530131	10.53020383	0.37455262	1.56320318	9.53774172	-0.86615602	0.75065723	6.60604955	-7.78836050	0.53903308	8.34750918	-1.98048519	-0.68562443	4.99116419	0.44183031	8.77814759	5.07797970	-1.08745453	13.77429393
3448	34.47000000	8.29888981	-1.88545615	5.45106934	8.26653837	1.61975716	4.57141511	9.92689110	0.60656626	1.17863180	10.04993167	-0.78724470	1.37863912	7.45499906	-8.84183908	1.05913215	8.87974314	-2.10193223	-1.25363784	4.83215628	0.61912679	8.88155874	4.64953273	-0.76500264	13.65662464
3449	34.48000000	8.37946147	-2.05930737	5.33425804	8.18448937	1.35810366	4.56462950	9.79510272	1.42807704	1.54889806	10.24130269	-0.84319807	1.52876903	7.28646458	-8.31042113	2.34200857	9.45757906	-2.60533483	-1.06949864	4.79165561	0.47241897	8.87928695	4.69207671	-0.74815544	13.37493466
3450	34.49000000	8.72767037	-2.12503146	5.28763424	8.40019164	1.04034565	4.48057350	9.56254404	2.37769756	1.30651948	9.99510774	-1.17686987	1.24223041	6.37167598	-6.26203320	3.55263424	10.08278709	-2.40831119	-0.59087652	5.11685719	0.31973220	8.74115693	5.65899438	-0.45643299	13.50844264
3451	34.50000000	9.19273588	-2.10862919	5.30295801	8.70247444	0.77375531	4.28328302	9.32934745	3.26203932	1.37678091	9.67802909	-1.73830148	0.89894113	5.93147292	-3.08648589	4.91529517	10.30175944	-1.72988210	0.14401734	5.44608827	0.45406529	8.49387385	7.03576027	1.06955423	14.13121805
3452	34.51000000	9.48700165	-2.06229911	5.28137492	8.88124544	0.71883372	4.03013096	9.27822738	3.68090123	1.97210609	9.55514469	-2.41912080	0.34988071	7.06744496	-0.18883361	6.46303801	9.82270418	-0.60281459	0.58102486	5.30991824	0.70249955	8.59954367	8.22046743	2.84018465	14.52646753
3453	34.52000000	9.50563269	-2.01277069	5.27198857	8.83760030	0.79921664	3.83616563	9.47349280	3.90757725	1.86317474	9.55625007	-3.00664853	-0.24546589	9.08333744	2.07148782	6.94897578	9.50776657	0.26972408	1.01990866	5.61057126	0.77024670	8.45167286	9.21102752	3.68095115	14.26226660
3454	34.53000000	9.40988391	-1.96964212	5.23872541	8.65253049	0.90317297	3.71360334	9.55727530	3.71463091	2.03627464	9.41337322	-3.25473151	-0.66236471	10.01506913	3.51120274	7.27634868	9.03505674	0.59296798	1.20782342	5.53395405	1.01299445	8.44936087	9.55159098	4.05948104	13.49372871
3455	34.54000000	9.44548716	-1.93823743	5.14123336	8.49196534	1.01687503	3.51777843	9.54300218	3.01807355	1.83033176	9.14553413	-2.99989141	-0.44676361	10.21652096	2.90863520	6.72064661	9.22606110	0.55374261	1.20266255	5.48146676	0.88576737	8.48383859	9.88839039	4.15408889	12.77548029
3456	34.55000000	9.52427438	-1.92825640	5.05134866	8.43878347	1.20869183	3.29589206	9.53369742	2.42276586	1.72011124	9.02052531	-2.42536409	0.28373314	11.12686141	0.40727824	4.75803266	9.67086605	0.38986040	0.99356623	5.88295471	0.79029369	8.28895478	10.35804442	3.36272391	12.08852842
3457	34.56000000	9.53887158	-1.91856542	5.14278702	8.46656454	1.42265961	3.20414666	9.67441589	2.11307115	1.25598499	9.23934011	-2.08740454	0.64560114	13.01386084	-2.44812494	1.87044883	9.61681149	0.07472753	0.21961272	5.52500485	0.58183050	8.47574839	10.73088293	0.66718425	11.31871784
3458	34.57000000	9.45354072	-1.87282503	5.08325737	8.57030325	1.67373608	3.10656582	9.94337950	2.02628577	1.29486310	9.55520658	-1.94552676	0.79208751	14.21093410	-5.11721075	-0.45777389	9.24638049	-0.30656379	-0.30243867	5.63144730	0.30756639	8.42807888	11.65850392	-0.51154725	11.01361237
